<svg xmlns="http://www.w3.org/2000/svg" viewBox="0 0 179.08 135.03"><defs><style>.cls-1{fill:none;}.cls-2{fill:#066eb0;}</style></defs><g id="Layer_2" data-name="Layer 2"><g id="Layer_1-2" data-name="Layer 1"><path class="cls-1" d="M163.17,61.59c-3.78-6.61-7.66-13.15-11.45-19.75a8.08,8.08,0,0,0-7.67-4.34c-6.1.06-12.2,0-18.3,0H111.68V82.65H37.41V98.32c2.71-.94,5.34-1.16,7-2.55,9.29-7.71,21.05-7.74,30.36.12a7.23,7.23,0,0,0,4.26,1.55q17.91.18,35.84,0a7.24,7.24,0,0,0,4.24-1.61c9.23-7.82,21.06-7.83,30.3.07a5.33,5.33,0,0,0,2.79,1.53c3.82.18,7.66.07,11.92.07,0-11.29,0-22,0-32.77A6.81,6.81,0,0,0,163.17,61.59Zm-43.63,5.73V45.06c7.06,0,14-.16,20.88.12a6.68,6.68,0,0,1,4.7,2.56c4,6.26,7.55,12.76,11.51,19.58Z"/><path class="cls-2" d="M177.41,57c-5.85-9.44-11.64-18.9-17.68-28.22-2.94-4.54-7.53-6.31-12.84-6.31h-35c0-5.34.08-10.08,0-14.83-.1-4.53-3-7.62-7.49-7.63Q67-.06,29.67.05a7.14,7.14,0,0,0-7.34,6.6c-.24,2.68,0,5.4,0,8.5H96.74V67.29H37.45V59.92H59.34V45.29H7.49v14.8H22.23v4.47c0,13.13,0,26.25,0,39.37,0,5.69,2.85,8.51,8.47,8.58,2.09,0,4.17,0,6.2,0,1.84,13.41,9.76,21.76,21,22.47a22.15,22.15,0,0,0,14.76-4.23c6.16-4.43,8.9-10.76,9.54-18.07h29.31c2.44,14.07,10.4,22.07,22.08,22.33a22.05,22.05,0,0,0,14.56-4.85c5.61-4.42,8.15-10.47,8.72-17.65,1.46,0,2.7-.09,3.92,0,8.86.75,15.21-2.56,18.28-11.27V60.76A30.35,30.35,0,0,0,177.41,57ZM59.28,121.5a9,9,0,1,1,9.24-8.78A9.06,9.06,0,0,1,59.28,121.5Zm74.75,0a9,9,0,1,1,9.18-8.85A9.06,9.06,0,0,1,134,121.5Zm30.11-24c-4.26,0-8.1.11-11.92-.07a5.33,5.33,0,0,1-2.79-1.53c-9.24-7.9-21.07-7.89-30.3-.07a7.24,7.24,0,0,1-4.24,1.61q-17.91.19-35.84,0a7.23,7.23,0,0,1-4.26-1.55c-9.31-7.86-21.07-7.83-30.36-.12-1.68,1.39-4.31,1.61-7,2.55V82.65h74.27V37.51h14.07c6.1,0,12.2.05,18.3,0a8.08,8.08,0,0,1,7.67,4.34c3.79,6.6,7.67,13.14,11.45,19.75a6.81,6.81,0,0,1,.93,3.14C164.17,75.47,164.14,86.21,164.14,97.5Z"/><path class="cls-2" d="M59.34,22.78H0V37.31H59.34Z"/><path class="cls-2" d="M140.42,45.18c-6.9-.28-13.82-.12-20.88-.12V67.32h37.09c-4-6.82-7.55-13.32-11.51-19.58A6.68,6.68,0,0,0,140.42,45.18Z"/></g></g></svg>