<svg id="Layer_1" data-name="Layer 1" xmlns="http://www.w3.org/2000/svg" viewBox="0 0 99.19 74.81"><defs><style>.cls-1{fill:none;}.cls-2{fill:#066eb0;}</style></defs><g id="Layer_2" data-name="Layer 2"><g id="Layer_1-2" data-name="Layer 1-2"><path class="cls-1" d="M91.79,47.72c-2.1-3.66-4.25-7.28-6.35-10.94a4.46,4.46,0,0,0-4.24-2.4c-3.38,0-6.76,0-10.14,0H63.27v25H22.13v8.68c1.5-.52,3-.64,3.88-1.41a12.53,12.53,0,0,1,16.81.07,4.06,4.06,0,0,0,2.36.86q9.91.09,19.85,0a4,4,0,0,0,2.35-.9,12.42,12.42,0,0,1,16.78,0,2.94,2.94,0,0,0,1.55.85c2.12.1,4.24,0,6.6,0V49.46A3.79,3.79,0,0,0,91.79,47.72ZM67.62,50.89V38.56c3.91,0,7.75-.08,11.56.07a3.69,3.69,0,0,1,2.61,1.42C84,43.52,86,47.12,88.16,50.89Z" transform="translate(-1.41 -13.6)"/><path class="cls-2" d="M99.67,45.18C96.43,40,93.23,34.71,89.88,29.55c-1.63-2.52-4.17-3.5-7.11-3.5H63.38c0-3,0-5.58,0-8.21a4,4,0,0,0-4.15-4.23q-20.71,0-41.39,0a4,4,0,0,0-4.06,3.66c-.14,1.48,0,3,0,4.71H55V50.88H22.15V46.79H34.28v-8.1H5.56v8.2h8.16V71.17c0,3.15,1.58,4.72,4.69,4.75h3.44c1,7.43,5.4,12.06,11.63,12.45A12.26,12.26,0,0,0,41.65,86c3.42-2.46,4.93-6,5.29-10H63.17c1.35,7.79,5.76,12.22,12.23,12.37a12.24,12.24,0,0,0,8.07-2.69c3.1-2.45,4.51-5.8,4.83-9.78.81,0,1.49,0,2.17,0,4.91.42,8.42-1.41,10.12-6.24V47.26A16,16,0,0,0,99.67,45.18ZM34.24,80.9A5,5,0,1,1,39.36,76,5,5,0,0,1,34.24,80.9Zm41.41,0A5,5,0,1,1,80.73,76a5,5,0,0,1-5.08,4.9ZM92.32,67.61c-2.36,0-4.48.06-6.6,0a2.88,2.88,0,0,1-1.54-.85,12.43,12.43,0,0,0-16.79,0,4,4,0,0,1-2.35.9q-9.92.11-19.85,0a4.06,4.06,0,0,1-2.36-.86A12.53,12.53,0,0,0,26,66.65c-.93.77-2.39.89-3.88,1.41V59.38H63.28v-25h7.79c3.38,0,6.76,0,10.14,0a4.45,4.45,0,0,1,4.24,2.41c2.1,3.65,4.25,7.27,6.35,10.94a3.74,3.74,0,0,1,.51,1.73C92.34,55.41,92.32,61.36,92.32,67.61Z" transform="translate(-1.41 -13.6)"/><path class="cls-2" d="M34.28,26.22H1.41v8.05H34.28Z" transform="translate(-1.41 -13.6)"/><path class="cls-2" d="M79.18,38.63c-3.82-.15-7.65-.07-11.56-.07V50.89H88.16C86,47.12,84,43.52,81.79,40.05A3.69,3.69,0,0,0,79.18,38.63Z" transform="translate(-1.41 -13.6)"/></g></g></svg>