<svg xmlns="http://www.w3.org/2000/svg" viewBox="0 0 178.97 180"><g id="Layer_2" data-name="Layer 2"><g id="Layer_1-2" data-name="Layer 1"><path d="M122.94,180H55.7c-2.33-.25-4.65-.6-7-.75C20.66,177.51,1.53,159,.63,130.82c-.87-27.19-.81-54.45,0-81.65.76-25.66,16-42.57,40.71-47.38C46.06.88,50.91.58,55.7,0h67.24c2.2.25,4.39.61,6.59.73,25.62,1.42,42.59,15.87,47.57,40.78,1,4.85,1.26,9.82,1.87,14.74v67.5c-.5,4.3-.92,8.62-1.52,12.91-3.07,21.88-16.82,36.69-38.37,41.12C133.77,178.87,128.32,179.28,122.94,180ZM163.1,90.19c-.42-13.86-.39-27.74-1.36-41.55C160.42,29.81,149.23,18,130.45,17.4q-41-1.29-82,0C29.36,18,17.59,29.76,17,48.8q-1.28,41.36,0,82.76c.57,18.54,12.46,30.45,31,31q41.18,1.26,82.42,0c18.79-.58,30-12.4,31.31-31.21C162.7,117.7,162.68,103.94,163.1,90.19Z"/><path d="M135.41,90.09c-.06,25.44-20.87,46.26-46.18,46.19a46.38,46.38,0,0,1-46-46.37c.09-25.46,20.89-46.26,46.19-46.19A46.36,46.36,0,0,1,135.41,90.09ZM89.34,120a30,30,0,1,0-29.9-30.08A30,30,0,0,0,89.34,120Z"/><path d="M137.36,52.69a10.74,10.74,0,1,1,10.52-10.82A10.54,10.54,0,0,1,137.36,52.69Z"/></g></g></svg>