<svg xmlns="http://www.w3.org/2000/svg" viewBox="0 0 179.26 179.27"><defs><style>.cls-1{fill:#066eb0;}</style></defs><g id="Layer_2" data-name="Layer 2"><g id="Layer_1-2" data-name="Layer 1"><path class="cls-1" d="M154.62,0c2.38,7.81,4.73,15.64,7.16,23.44,2.18,7,4.45,13.93,6.77,21.21H119.73L132,28.74C111,12.45,74.2,8.34,45.46,29.52A74.66,74.66,0,0,0,108.71,161.9c20.47-5.46,36-17.66,46.31-36.19s11.77-37.94,6-58.44c4.79,0,9.13-.13,13.46.11a3.73,3.73,0,0,1,2.46,2.38c1,3.83,1.58,7.76,2.32,11.65V97.84a26.94,26.94,0,0,0-.68,2.86A89.56,89.56,0,0,1,74.36,177.91C33,170.65,1.67,135.43.07,94.26-1.61,51,26.15,13.38,67.62,2.89,72.41,1.68,77.32,1,82.17,0H97.11a4.77,4.77,0,0,0,1.34.54,89.14,89.14,0,0,1,42.06,15.4,5.25,5.25,0,0,0,1.23.35L153.87,0Zm-35,84.9v44.72H60.31V85.15h7.28c0-5,0-9.51,0-14.07,0-13.37,9.59-23.41,22.33-23.44s22.44,10,22.48,23.29c0,4.57,0,9.14,0,14ZM97.41,69.85a7.38,7.38,0,0,0-6.74-7.23c-3.68-.34-7.59,2.18-7.88,5.9-.41,5.39-.1,10.83-.1,16.3H97.45C97.45,79.54,97.56,74.69,97.41,69.85Z"/></g></g></svg>