<svg id="Layer_1" data-name="Layer 1" xmlns="http://www.w3.org/2000/svg" viewBox="0 0 99.19 99.17"><defs><style>.cls-1{fill:#066eb0;}</style></defs><g id="Layer_2" data-name="Layer 2"><g id="Layer_1-2" data-name="Layer 1-2"><path class="cls-1" d="M87,1.41c1.32,4.32,2.62,8.66,4,13,1.21,3.87,2.46,7.71,3.75,11.74h-27l6.79-8.81c-11.62-9-32-11.28-47.88.44A41.31,41.31,0,0,0,61.56,91,40.2,40.2,0,0,0,87.18,71c5.71-10.25,6.51-21,3.32-32.34,2.65,0,5-.07,7.45.06A2.08,2.08,0,0,1,99.31,40c.55,2.12.87,4.29,1.28,6.45v9.09a14.47,14.47,0,0,0-.37,1.58,49.57,49.57,0,0,1-55.28,43.08c-.8-.1-1.6-.22-2.39-.36-22.88-4-40.22-23.5-41.1-46.28C.52,29.63,15.88,8.82,38.82,3c2.65-.67,5.37-1,8-1.6h8.27a2.5,2.5,0,0,0,.74.3,49.29,49.29,0,0,1,23.27,8.52,3.31,3.31,0,0,0,.68.2l6.71-9Zm-19.37,47V73.13H34.78V48.53h4V40.74c0-7.4,5.3-13,12.35-13S63.58,33.3,63.6,40.66V48.4ZM55.31,40.06a4.09,4.09,0,0,0-3.73-4c-2-.19-4.2,1.21-4.36,3.26-.23,3-.06,6-.06,9h8.17C55.33,45.42,55.39,42.74,55.31,40.06Z" transform="translate(-1.41 -1.41)"/></g></g></svg>