<svg xmlns="http://www.w3.org/2000/svg" viewBox="0 0 512 443.76"><g id="Layer_2" data-name="Layer 2"><g id="Layer_1-2" data-name="Layer 1"><path d="M0,439.76c.82-3.87,1.58-7.76,2.47-11.61,7.73-33.14,27.4-58.37,53.12-79.39,26.79-21.89,57.56-36.24,90.33-46.69,3-1,4.6.31,6.43,2.19,15.54,15.92,33.27,28.69,54.21,36.53,43.28,16.22,84.73,11.8,123.66-12.72C341,321.31,350.06,312,360.08,304c1.53-1.21,4.27-2.27,5.93-1.75,37.09,11.58,71.41,28.33,100.18,55,22,20.39,38.07,44.36,44.09,74.27.56,2.74,1.15,5.47,1.72,8.2v4c-2-.12-4-.37-5.94-.37H5.94c-2,0-4,.25-5.94.37Z"/><path d="M395.09,174.69a174.72,174.72,0,0,1-39.93,108c-25.25,30.71-57.32,49-97.73,49.82-29.78.59-56.31-9.51-79.15-28.44-34.6-28.68-53.17-66.25-59.4-110.3-5.11-36.15-.79-71.15,14.05-104.53,16.14-36.32,40.95-64.69,78.4-80,34.37-14,68.53-12,101.18,5.56,37,19.89,59.61,51.74,72.9,90.82C392.12,125.34,395.11,145.69,395.09,174.69Z"/></g></g></svg>