<svg xmlns="http://www.w3.org/2000/svg" viewBox="0 0 176.98 146.98"><defs><style>.cls-1{fill:#fff;}</style></defs><g id="Layer_2" data-name="Layer 2"><g id="Layer_1-2" data-name="Layer 1"><path class="cls-1" d="M52.3,114.87c-16,12-33.28,16.67-52.3,15.86,30.79,18.22,63.2,21.69,95.76,7.52,43.68-19,62.36-55.17,63.86-101.84,2-1.68,4.23-3.45,6.32-5.41s3.9-3.86,5.7-5.92S175,20.82,177,18.32l-18.93,5.16-.46-.82c6.73-4.81,11.83-10.8,14.69-19.47-7.82,4.12-15.17,7.28-23,8.58C136.75.21,122.58-3.51,107.18,3.66c-17.41,8.1-23.58,22.85-21.1,42C55.45,43.4,30.49,30.48,10.59,7.14a35.83,35.83,0,0,0-4.79,22C7,40.09,12.11,48.92,20.91,55.65l-.52,1L5.45,52.5a35.25,35.25,0,0,0,7.84,22.56c5.06,6.53,11.82,10.65,19.75,13l-.3,1H18.14C24.35,104.81,35.44,113.06,52.3,114.87Z"/><path d="M52.3,114.87c-16.86-1.81-27.95-10.06-34.16-25.74h14.6l.3-1c-7.93-2.38-14.69-6.5-19.75-13A35.25,35.25,0,0,1,5.45,52.5l14.94,4.12.52-1C12.11,48.92,7,40.09,5.8,29.15a35.83,35.83,0,0,1,4.79-22C30.49,30.48,55.45,43.4,86.08,45.62c-2.48-19.11,3.69-33.86,21.1-42,15.4-7.17,29.57-3.45,42.09,8.11,7.84-1.3,15.19-4.46,23-8.58-2.86,8.67-8,14.66-14.69,19.47l.46.82L177,18.32c-2,2.5-3.56,4.71-5.34,6.76s-3.71,4.05-5.7,5.92-4.34,3.73-6.32,5.41c-1.5,46.67-20.18,82.81-63.86,101.84C63.2,152.42,30.79,149,0,130.73,19,131.54,36.3,126.88,52.3,114.87Z"/></g></g></svg>