<svg xmlns="http://www.w3.org/2000/svg" viewBox="0 0 179.21 135.07"><g id="Layer_2" data-name="Layer 2"><g id="Layer_1-2" data-name="Layer 1"><path d="M179.21.82c-1.54,3.94-3.15,7.85-4.58,11.82-.63,1.76-1.47,2.57-3.46,2.48-3.84-.17-7.7,0-11.89,0-8.65,30-17.27,59.85-26,90H129.5c-30.49,0-61,0-91.46.08-2.86,0-4.21-.88-5.13-3.48-1.32-3.74-3-7.36-4.66-11.48h93.93L133.64,50c4.45-15.59,9-31.16,13.28-46.78.7-2.53,1.7-3.3,4.29-3.25,9.33.17,18.66.07,28,.07Z"/><path d="M0,22.71H125.47l-10,35.81c-1.25,4.45-2.64,8.85-3.7,13.34-.59,2.5-1.67,3.3-4.3,3.28-23-.12-46.05-.07-69.07-.07-4.73,0-9.46.08-14.18-.07a3.73,3.73,0,0,1-2.86-1.49C14.22,56.78,7.23,40,0,22.71Z"/><path d="M74.64,123.66a11.2,11.2,0,1,1-11.27-11.08A11.22,11.22,0,0,1,74.64,123.66Z"/><path d="M112,123.79a11.2,11.2,0,1,1-11.13-11.21A11.22,11.22,0,0,1,112,123.79Z"/></g></g></svg>